<mxfile host="Electron" agent="Mozilla/5.0 (Windows NT 10.0; Win64; x64) AppleWebKit/537.36 (KHTML, like Gecko) draw.io/26.0.9 Chrome/128.0.6613.186 Electron/32.2.5 Safari/537.36" version="26.0.9">
  <diagram name="Page-1" id="h1n8PZr7sgKUXk8LNkc2">
    <mxGraphModel dx="1434" dy="836" grid="1" gridSize="10" guides="1" tooltips="1" connect="1" arrows="1" fold="1" page="1" pageScale="1" pageWidth="1200" pageHeight="1920" math="0" shadow="0">
      <root>
        <mxCell id="0" />
        <mxCell id="1" parent="0" />
        <mxCell id="5uA9pcVp3LpVxrsXrmJU-1" value="" style="rounded=0;whiteSpace=wrap;html=1;fillColor=none;strokeColor=#666666;fontColor=#333333;" parent="1" vertex="1">
          <mxGeometry x="689" y="160" width="190" height="460" as="geometry" />
        </mxCell>
        <mxCell id="2CRzV3j9DOagkD-9mnAY-1" value="" style="rounded=0;whiteSpace=wrap;html=1;fillColor=none;dashed=1;fontColor=#333333;strokeColor=#707070;" parent="1" vertex="1">
          <mxGeometry x="110" y="160" width="210" height="460" as="geometry" />
        </mxCell>
        <mxCell id="2CRzV3j9DOagkD-9mnAY-2" value="&lt;font style=&quot;font-size: 24px;&quot;&gt;Sources&lt;/font&gt;" style="rounded=1;whiteSpace=wrap;html=1;strokeColor=none;" parent="1" vertex="1">
          <mxGeometry x="154.5" y="120" width="120" height="60" as="geometry" />
        </mxCell>
        <mxCell id="2CRzV3j9DOagkD-9mnAY-25" style="edgeStyle=orthogonalEdgeStyle;rounded=0;orthogonalLoop=1;jettySize=auto;html=1;entryX=0;entryY=0.5;entryDx=0;entryDy=0;" parent="1" source="2CRzV3j9DOagkD-9mnAY-3" target="2CRzV3j9DOagkD-9mnAY-11" edge="1">
          <mxGeometry relative="1" as="geometry" />
        </mxCell>
        <mxCell id="2CRzV3j9DOagkD-9mnAY-29" style="edgeStyle=orthogonalEdgeStyle;rounded=0;orthogonalLoop=1;jettySize=auto;html=1;entryX=0;entryY=0.5;entryDx=0;entryDy=0;" parent="1" source="2CRzV3j9DOagkD-9mnAY-3" target="2CRzV3j9DOagkD-9mnAY-27" edge="1">
          <mxGeometry relative="1" as="geometry" />
        </mxCell>
        <mxCell id="2CRzV3j9DOagkD-9mnAY-30" style="edgeStyle=orthogonalEdgeStyle;rounded=0;orthogonalLoop=1;jettySize=auto;html=1;entryX=0;entryY=0.5;entryDx=0;entryDy=0;" parent="1" source="2CRzV3j9DOagkD-9mnAY-3" target="2CRzV3j9DOagkD-9mnAY-28" edge="1">
          <mxGeometry relative="1" as="geometry" />
        </mxCell>
        <mxCell id="2CRzV3j9DOagkD-9mnAY-3" value="CRM" style="image;aspect=fixed;html=1;points=[];align=center;fontSize=12;image=img/lib/azure2/general/Folder_Blank.svg;" parent="1" vertex="1">
          <mxGeometry x="176.54" y="290" width="74.93" height="60.81" as="geometry" />
        </mxCell>
        <mxCell id="2CRzV3j9DOagkD-9mnAY-34" style="edgeStyle=orthogonalEdgeStyle;rounded=0;orthogonalLoop=1;jettySize=auto;html=1;" parent="1" source="2CRzV3j9DOagkD-9mnAY-4" target="2CRzV3j9DOagkD-9mnAY-32" edge="1">
          <mxGeometry relative="1" as="geometry" />
        </mxCell>
        <mxCell id="2CRzV3j9DOagkD-9mnAY-35" style="edgeStyle=orthogonalEdgeStyle;rounded=0;orthogonalLoop=1;jettySize=auto;html=1;entryX=0;entryY=0.5;entryDx=0;entryDy=0;" parent="1" source="2CRzV3j9DOagkD-9mnAY-4" target="2CRzV3j9DOagkD-9mnAY-31" edge="1">
          <mxGeometry relative="1" as="geometry" />
        </mxCell>
        <mxCell id="2CRzV3j9DOagkD-9mnAY-36" style="edgeStyle=orthogonalEdgeStyle;rounded=0;orthogonalLoop=1;jettySize=auto;html=1;entryX=0;entryY=0.5;entryDx=0;entryDy=0;" parent="1" source="2CRzV3j9DOagkD-9mnAY-4" target="2CRzV3j9DOagkD-9mnAY-33" edge="1">
          <mxGeometry relative="1" as="geometry" />
        </mxCell>
        <mxCell id="2CRzV3j9DOagkD-9mnAY-4" value="ERP&lt;div&gt;&lt;br&gt;&lt;/div&gt;" style="image;aspect=fixed;html=1;points=[];align=center;fontSize=12;image=img/lib/azure2/general/Folder_Blank.svg;" parent="1" vertex="1">
          <mxGeometry x="177.54" y="460.4" width="73.93" height="60" as="geometry" />
        </mxCell>
        <mxCell id="2CRzV3j9DOagkD-9mnAY-9" value="" style="rounded=0;whiteSpace=wrap;html=1;fillColor=none;strokeColor=#D79B00;" parent="1" vertex="1">
          <mxGeometry x="427.5" y="160" width="190" height="460" as="geometry" />
        </mxCell>
        <mxCell id="2CRzV3j9DOagkD-9mnAY-10" value="&lt;font style=&quot;font-size: 24px;&quot;&gt;&lt;b&gt;Bronze Layer&lt;/b&gt;&lt;/font&gt;" style="rounded=1;whiteSpace=wrap;html=1;fillColor=#ffe6cc;strokeColor=none;" parent="1" vertex="1">
          <mxGeometry x="435" y="120" width="175" height="60" as="geometry" />
        </mxCell>
        <mxCell id="5uA9pcVp3LpVxrsXrmJU-9" style="edgeStyle=orthogonalEdgeStyle;rounded=0;orthogonalLoop=1;jettySize=auto;html=1;entryX=0;entryY=0.5;entryDx=0;entryDy=0;" parent="1" source="2CRzV3j9DOagkD-9mnAY-11" target="5uA9pcVp3LpVxrsXrmJU-3" edge="1">
          <mxGeometry relative="1" as="geometry" />
        </mxCell>
        <mxCell id="2CRzV3j9DOagkD-9mnAY-11" value="crm_sales_details" style="rounded=1;whiteSpace=wrap;html=1;fillColor=#ffe6cc;strokeColor=none;fontSize=14;" parent="1" vertex="1">
          <mxGeometry x="446.25" y="250" width="155" height="40" as="geometry" />
        </mxCell>
        <mxCell id="5uA9pcVp3LpVxrsXrmJU-10" style="edgeStyle=orthogonalEdgeStyle;rounded=0;orthogonalLoop=1;jettySize=auto;html=1;entryX=0;entryY=0.5;entryDx=0;entryDy=0;" parent="1" source="2CRzV3j9DOagkD-9mnAY-27" target="5uA9pcVp3LpVxrsXrmJU-4" edge="1">
          <mxGeometry relative="1" as="geometry" />
        </mxCell>
        <mxCell id="2CRzV3j9DOagkD-9mnAY-27" value="crm_prd_info" style="rounded=1;whiteSpace=wrap;html=1;fillColor=#ffe6cc;strokeColor=none;fontSize=14;" parent="1" vertex="1">
          <mxGeometry x="445" y="300.4" width="155" height="40" as="geometry" />
        </mxCell>
        <mxCell id="5uA9pcVp3LpVxrsXrmJU-11" style="edgeStyle=orthogonalEdgeStyle;rounded=0;orthogonalLoop=1;jettySize=auto;html=1;" parent="1" source="2CRzV3j9DOagkD-9mnAY-28" target="5uA9pcVp3LpVxrsXrmJU-5" edge="1">
          <mxGeometry relative="1" as="geometry" />
        </mxCell>
        <mxCell id="2CRzV3j9DOagkD-9mnAY-28" value="crm_cust_info" style="rounded=1;whiteSpace=wrap;html=1;fillColor=#ffe6cc;strokeColor=none;fontSize=14;" parent="1" vertex="1">
          <mxGeometry x="445" y="360" width="155" height="40" as="geometry" />
        </mxCell>
        <mxCell id="5uA9pcVp3LpVxrsXrmJU-12" style="edgeStyle=orthogonalEdgeStyle;rounded=0;orthogonalLoop=1;jettySize=auto;html=1;entryX=0;entryY=0.5;entryDx=0;entryDy=0;" parent="1" source="2CRzV3j9DOagkD-9mnAY-31" target="5uA9pcVp3LpVxrsXrmJU-6" edge="1">
          <mxGeometry relative="1" as="geometry" />
        </mxCell>
        <mxCell id="2CRzV3j9DOagkD-9mnAY-31" value="erp_cust_az12" style="rounded=1;whiteSpace=wrap;html=1;fillColor=#ffe6cc;strokeColor=none;fontSize=14;" parent="1" vertex="1">
          <mxGeometry x="445.25" y="420" width="155" height="40" as="geometry" />
        </mxCell>
        <mxCell id="5uA9pcVp3LpVxrsXrmJU-13" style="edgeStyle=orthogonalEdgeStyle;rounded=0;orthogonalLoop=1;jettySize=auto;html=1;entryX=0;entryY=0.5;entryDx=0;entryDy=0;" parent="1" source="2CRzV3j9DOagkD-9mnAY-32" target="5uA9pcVp3LpVxrsXrmJU-7" edge="1">
          <mxGeometry relative="1" as="geometry" />
        </mxCell>
        <mxCell id="2CRzV3j9DOagkD-9mnAY-32" value="erp_loca101" style="rounded=1;whiteSpace=wrap;html=1;fillColor=#ffe6cc;strokeColor=none;fontSize=14;" parent="1" vertex="1">
          <mxGeometry x="444" y="470.4" width="155" height="40" as="geometry" />
        </mxCell>
        <mxCell id="5uA9pcVp3LpVxrsXrmJU-14" style="edgeStyle=orthogonalEdgeStyle;rounded=0;orthogonalLoop=1;jettySize=auto;html=1;entryX=0;entryY=0.5;entryDx=0;entryDy=0;" parent="1" source="2CRzV3j9DOagkD-9mnAY-33" target="5uA9pcVp3LpVxrsXrmJU-8" edge="1">
          <mxGeometry relative="1" as="geometry" />
        </mxCell>
        <mxCell id="2CRzV3j9DOagkD-9mnAY-33" value="erp_px_cat_g1v2" style="rounded=1;whiteSpace=wrap;html=1;fillColor=#ffe6cc;strokeColor=none;fontSize=14;" parent="1" vertex="1">
          <mxGeometry x="444" y="530" width="155" height="40" as="geometry" />
        </mxCell>
        <mxCell id="5uA9pcVp3LpVxrsXrmJU-2" value="&lt;font style=&quot;font-size: 24px;&quot;&gt;&lt;b&gt;Silver Layer&lt;/b&gt;&lt;/font&gt;" style="rounded=1;whiteSpace=wrap;html=1;fillColor=#f5f5f5;strokeColor=#666666;fontColor=#333333;" parent="1" vertex="1">
          <mxGeometry x="697.5" y="120" width="175" height="60" as="geometry" />
        </mxCell>
        <mxCell id="5uA9pcVp3LpVxrsXrmJU-3" value="crm_sales_details" style="rounded=1;whiteSpace=wrap;html=1;fillColor=#f5f5f5;strokeColor=#666666;fontColor=#333333;fontSize=14;" parent="1" vertex="1">
          <mxGeometry x="708.75" y="250" width="155" height="40" as="geometry" />
        </mxCell>
        <mxCell id="5uA9pcVp3LpVxrsXrmJU-4" value="crm_prd_info" style="rounded=1;whiteSpace=wrap;html=1;fillColor=#f5f5f5;strokeColor=#666666;fontColor=#333333;fontSize=14;" parent="1" vertex="1">
          <mxGeometry x="707.5" y="300.4" width="155" height="40" as="geometry" />
        </mxCell>
        <mxCell id="5uA9pcVp3LpVxrsXrmJU-5" value="crm_cust_info" style="rounded=1;whiteSpace=wrap;html=1;fillColor=#f5f5f5;strokeColor=#666666;fontColor=#333333;fontSize=14;" parent="1" vertex="1">
          <mxGeometry x="707.5" y="360" width="155" height="40" as="geometry" />
        </mxCell>
        <mxCell id="5uA9pcVp3LpVxrsXrmJU-6" value="erp_cust_az12" style="rounded=1;whiteSpace=wrap;html=1;fillColor=#f5f5f5;strokeColor=#666666;fontColor=#333333;fontSize=14;" parent="1" vertex="1">
          <mxGeometry x="707.75" y="420" width="155" height="40" as="geometry" />
        </mxCell>
        <mxCell id="5uA9pcVp3LpVxrsXrmJU-7" value="erp_loca101" style="rounded=1;whiteSpace=wrap;html=1;fillColor=#f5f5f5;strokeColor=#666666;fontColor=#333333;fontSize=14;" parent="1" vertex="1">
          <mxGeometry x="706.5" y="470.4" width="155" height="40" as="geometry" />
        </mxCell>
        <mxCell id="5uA9pcVp3LpVxrsXrmJU-8" value="erp_px_cat_g1v2" style="rounded=1;whiteSpace=wrap;html=1;fillColor=#f5f5f5;strokeColor=#666666;fontColor=#333333;fontSize=14;" parent="1" vertex="1">
          <mxGeometry x="706.5" y="530" width="155" height="40" as="geometry" />
        </mxCell>
        <mxCell id="8n38ynNcOJuj_9CRjuvf-9" value="" style="rounded=0;whiteSpace=wrap;html=1;fillColor=none;strokeColor=#d6b656;" vertex="1" parent="1">
          <mxGeometry x="980" y="160" width="190" height="460" as="geometry" />
        </mxCell>
        <mxCell id="8n38ynNcOJuj_9CRjuvf-10" value="&lt;font style=&quot;font-size: 24px;&quot;&gt;&lt;b&gt;Gold Layer&lt;/b&gt;&lt;/font&gt;" style="rounded=1;whiteSpace=wrap;html=1;fillColor=#fff2cc;strokeColor=#d6b656;" vertex="1" parent="1">
          <mxGeometry x="987.5" y="120" width="175" height="60" as="geometry" />
        </mxCell>
        <mxCell id="8n38ynNcOJuj_9CRjuvf-11" value="fact_sales" style="rounded=1;whiteSpace=wrap;html=1;fillColor=none;strokeColor=#d6b656;fontSize=14;" vertex="1" parent="1">
          <mxGeometry x="997.5" y="300.4" width="155" height="40" as="geometry" />
        </mxCell>
        <mxCell id="8n38ynNcOJuj_9CRjuvf-12" value="dim_products" style="rounded=1;whiteSpace=wrap;html=1;fillColor=none;strokeColor=#d6b656;fontSize=14;" vertex="1" parent="1">
          <mxGeometry x="997.5" y="450" width="155" height="40" as="geometry" />
        </mxCell>
        <mxCell id="8n38ynNcOJuj_9CRjuvf-13" value="dim_customers" style="rounded=1;whiteSpace=wrap;html=1;fillColor=none;strokeColor=#d6b656;fontSize=14;" vertex="1" parent="1">
          <mxGeometry x="997.5" y="370" width="155" height="40" as="geometry" />
        </mxCell>
        <mxCell id="8n38ynNcOJuj_9CRjuvf-20" value="" style="endArrow=classic;html=1;rounded=0;exitX=1;exitY=0.5;exitDx=0;exitDy=0;entryX=0;entryY=0.5;entryDx=0;entryDy=0;jumpStyle=gap;" edge="1" parent="1" source="5uA9pcVp3LpVxrsXrmJU-3" target="8n38ynNcOJuj_9CRjuvf-11">
          <mxGeometry width="50" height="50" relative="1" as="geometry">
            <mxPoint x="920" y="270" as="sourcePoint" />
            <mxPoint x="970" y="220" as="targetPoint" />
          </mxGeometry>
        </mxCell>
        <mxCell id="8n38ynNcOJuj_9CRjuvf-21" value="" style="endArrow=classic;html=1;rounded=0;exitX=1;exitY=0.5;exitDx=0;exitDy=0;entryX=0;entryY=0.5;entryDx=0;entryDy=0;jumpStyle=gap;" edge="1" parent="1" source="5uA9pcVp3LpVxrsXrmJU-4" target="8n38ynNcOJuj_9CRjuvf-12">
          <mxGeometry width="50" height="50" relative="1" as="geometry">
            <mxPoint x="872.5" y="300.4" as="sourcePoint" />
            <mxPoint x="946.5" y="350.4" as="targetPoint" />
          </mxGeometry>
        </mxCell>
        <mxCell id="8n38ynNcOJuj_9CRjuvf-22" value="" style="endArrow=classic;html=1;rounded=0;exitX=1;exitY=0.5;exitDx=0;exitDy=0;entryX=0;entryY=0.5;entryDx=0;entryDy=0;jumpStyle=gap;" edge="1" parent="1" source="5uA9pcVp3LpVxrsXrmJU-5" target="8n38ynNcOJuj_9CRjuvf-13">
          <mxGeometry width="50" height="50" relative="1" as="geometry">
            <mxPoint x="872.5" y="390" as="sourcePoint" />
            <mxPoint x="946.5" y="440" as="targetPoint" />
          </mxGeometry>
        </mxCell>
        <mxCell id="8n38ynNcOJuj_9CRjuvf-23" value="" style="endArrow=classic;html=1;rounded=0;exitX=1;exitY=0.5;exitDx=0;exitDy=0;entryX=0;entryY=0.5;entryDx=0;entryDy=0;jumpStyle=gap;" edge="1" parent="1" source="5uA9pcVp3LpVxrsXrmJU-6" target="8n38ynNcOJuj_9CRjuvf-13">
          <mxGeometry width="50" height="50" relative="1" as="geometry">
            <mxPoint x="880" y="490" as="sourcePoint" />
            <mxPoint x="955" y="500" as="targetPoint" />
          </mxGeometry>
        </mxCell>
        <mxCell id="8n38ynNcOJuj_9CRjuvf-24" value="" style="endArrow=classic;html=1;rounded=0;exitX=1;exitY=0.5;exitDx=0;exitDy=0;entryX=0;entryY=0.5;entryDx=0;entryDy=0;jumpStyle=gap;" edge="1" parent="1" source="5uA9pcVp3LpVxrsXrmJU-7" target="8n38ynNcOJuj_9CRjuvf-13">
          <mxGeometry width="50" height="50" relative="1" as="geometry">
            <mxPoint x="890" y="540" as="sourcePoint" />
            <mxPoint x="964" y="590" as="targetPoint" />
          </mxGeometry>
        </mxCell>
        <mxCell id="8n38ynNcOJuj_9CRjuvf-25" value="" style="endArrow=classic;html=1;rounded=0;exitX=1;exitY=0.5;exitDx=0;exitDy=0;entryX=0;entryY=0.5;entryDx=0;entryDy=0;jumpStyle=gap;" edge="1" parent="1" source="5uA9pcVp3LpVxrsXrmJU-8" target="8n38ynNcOJuj_9CRjuvf-12">
          <mxGeometry width="50" height="50" relative="1" as="geometry">
            <mxPoint x="880" y="570.4" as="sourcePoint" />
            <mxPoint x="956" y="470.4" as="targetPoint" />
          </mxGeometry>
        </mxCell>
      </root>
    </mxGraphModel>
  </diagram>
</mxfile>
